<svg version="1.1" viewBox="0.0 0.0 1024.0 1024.0" fill="none" stroke="none" stroke-linecap="square" stroke-miterlimit="10" xmlns:xlink="http://www.w3.org/1999/xlink" xmlns="http://www.w3.org/2000/svg"><clipPath id="p.0"><path d="m0 0l1024.0 0l0 1024.0l-1024.0 0l0 -1024.0z" clip-rule="nonzero"/></clipPath><g clip-path="url(#p.0)"><path fill="#000000" fill-opacity="0.0" d="m0 0l1024.0 0l0 1024.0l-1024.0 0z" fill-rule="evenodd"/><defs><radialGradient id="p.1" gradientUnits="userSpaceOnUse" gradientTransform="matrix(26.908685322782404 0.0 0.0 26.908685322782404 0.0 0.0)" spreadMethod="pad" cx="19.027313815532715" cy="19.027313815532715" fx="19.027313815532715" fy="19.027313815532715" r="26.9086856842041"><stop offset="0.0" stop-color="#696969"/><stop offset="1.0" stop-color="#1d1d1d"/></radialGradient></defs><path fill="url(#p.1)" d="m0 0l1024.0 0l0 1024.0l-1024.0 0z" fill-rule="evenodd"/><defs><linearGradient id="p.2" gradientUnits="userSpaceOnUse" gradientTransform="matrix(25.8433034429732 0.0 0.0 25.8433034429732 0.0 0.0)" spreadMethod="pad" x1="7.38064148421309" y1="6.890012162172834" x2="7.3805478576599715" y2="32.73331560497643"><stop offset="0.0" stop-color="#db0000"/><stop offset="1.0" stop-color="#540303"/></linearGradient></defs><path fill="url(#p.2)" d="m190.74016 512.0l0 0c0 -184.42831 143.83293 -333.937 321.25983 -333.937l0 0c85.20343 0 166.91711 35.182556 227.16504 97.80789c60.247864 62.625336 94.09479 147.5635 94.09479 236.12912l0 0c0 184.42834 -143.83289 333.937 -321.25983 333.937l0 0c-177.42691 0 -321.25983 -149.50867 -321.25983 -333.937z" fill-rule="evenodd"/><path stroke="#000000" stroke-width="12.0" stroke-linejoin="round" stroke-linecap="butt" d="m190.74016 512.0l0 0c0 -184.42831 143.83293 -333.937 321.25983 -333.937l0 0c85.20343 0 166.91711 35.182556 227.16504 97.80789c60.247864 62.625336 94.09479 147.5635 94.09479 236.12912l0 0c0 184.42834 -143.83289 333.937 -321.25983 333.937l0 0c-177.42691 0 -321.25983 -149.50867 -321.25983 -333.937z" fill-rule="evenodd"/><defs><radialGradient id="p.3" gradientUnits="userSpaceOnUse" gradientTransform="matrix(7.662131324810891 0.0 0.0 7.662131324810891 0.0 0.0)" spreadMethod="pad" cx="9.718176196758888" cy="10.896552161399374" fx="9.718176196758888" fy="10.896552161399374" r="7.662131309509277"><stop offset="0.0" stop-color="#bfbfbf"/><stop offset="1.0" stop-color="#737373"/></radialGradient></defs><path fill="url(#p.3)" d="m33.26509 83.490814l0 0c0 -23.100288 18.444458 -41.82677 41.196854 -41.82677l0 0c10.926079 0 21.404663 4.4067345 29.13057 12.250778c7.7259064 7.84404 12.066277 18.482845 12.066277 29.575993l0 0c0 23.100288 -18.444458 41.826775 -41.196846 41.826775l0 0c-22.752396 0 -41.196854 -18.726486 -41.196854 -41.826775z" fill-rule="evenodd"/><path stroke="#000000" stroke-width="3.0" stroke-linejoin="round" stroke-linecap="butt" d="m33.26509 83.490814l0 0c0 -23.100288 18.444458 -41.82677 41.196854 -41.82677l0 0c10.926079 0 21.404663 4.4067345 29.13057 12.250778c7.7259064 7.84404 12.066277 18.482845 12.066277 29.575993l0 0c0 23.100288 -18.444458 41.826775 -41.196846 41.826775l0 0c-22.752396 0 -41.196854 -18.726486 -41.196854 -41.826775z" fill-rule="evenodd"/><defs><radialGradient id="p.4" gradientUnits="userSpaceOnUse" gradientTransform="matrix(7.662131324810891 0.0 0.0 7.662131324810891 0.0 0.0)" spreadMethod="pad" cx="122.95599578487942" cy="124.75473188671872" fx="122.95599578487942" fy="124.75473188671872" r="7.662131309509277"><stop offset="0.0" stop-color="#bfbfbf"/><stop offset="1.0" stop-color="#737373"/></radialGradient></defs><path fill="url(#p.4)" d="m900.90814 955.88715l0 0c0 -23.10028 18.444458 -41.826782 41.19684 -41.826782l0 0c10.926086 0 21.404663 4.4067383 29.130554 12.250793c7.725952 7.844055 12.066284 18.48285 12.066284 29.575989l0 0c0 23.10028 -18.444458 41.826782 -41.19684 41.826782l0 0c-22.75238 0 -41.19684 -18.726501 -41.19684 -41.826782z" fill-rule="evenodd"/><path stroke="#000000" stroke-width="3.0" stroke-linejoin="round" stroke-linecap="butt" d="m900.90814 955.88715l0 0c0 -23.10028 18.444458 -41.826782 41.19684 -41.826782l0 0c10.926086 0 21.404663 4.4067383 29.130554 12.250793c7.725952 7.844055 12.066284 18.48285 12.066284 29.575989l0 0c0 23.10028 -18.444458 41.826782 -41.19684 41.826782l0 0c-22.75238 0 -41.19684 -18.726501 -41.19684 -41.826782z" fill-rule="evenodd"/><defs><radialGradient id="p.5" gradientUnits="userSpaceOnUse" gradientTransform="matrix(7.662131324810891 0.0 0.0 7.662131324810891 0.0 0.0)" spreadMethod="pad" cx="9.718176196758888" cy="124.75473188671872" fx="9.718176196758888" fy="124.75473188671872" r="7.662131309509277"><stop offset="0.0" stop-color="#bfbfbf"/><stop offset="1.0" stop-color="#737373"/></radialGradient></defs><path fill="url(#p.5)" d="m33.26509 955.88715l0 0c0 -23.10028 18.444458 -41.826782 41.196854 -41.826782l0 0c10.926079 0 21.404663 4.4067383 29.13057 12.250793c7.7259064 7.844055 12.066277 18.48285 12.066277 29.575989l0 0c0 23.10028 -18.444458 41.826782 -41.196846 41.826782l0 0c-22.752396 0 -41.196854 -18.726501 -41.196854 -41.826782z" fill-rule="evenodd"/><path stroke="#000000" stroke-width="3.0" stroke-linejoin="round" stroke-linecap="butt" d="m33.26509 955.88715l0 0c0 -23.10028 18.444458 -41.826782 41.196854 -41.826782l0 0c10.926079 0 21.404663 4.4067383 29.13057 12.250793c7.7259064 7.844055 12.066277 18.48285 12.066277 29.575989l0 0c0 23.10028 -18.444458 41.826782 -41.196846 41.826782l0 0c-22.752396 0 -41.196854 -18.726501 -41.196854 -41.826782z" fill-rule="evenodd"/><defs><radialGradient id="p.6" gradientUnits="userSpaceOnUse" gradientTransform="matrix(7.662131324810891 0.0 0.0 7.662131324810891 0.0 0.0)" spreadMethod="pad" cx="122.95599578487942" cy="10.896552161399374" fx="122.95599578487942" fy="10.896552161399374" r="7.662131309509277"><stop offset="0.0" stop-color="#bfbfbf"/><stop offset="1.0" stop-color="#737373"/></radialGradient></defs><path fill="url(#p.6)" d="m900.90814 83.490814l0 0c0 -23.100288 18.444458 -41.82677 41.19684 -41.82677l0 0c10.926086 0 21.404663 4.4067345 29.130554 12.250778c7.725952 7.84404 12.066284 18.482845 12.066284 29.575993l0 0c0 23.100288 -18.444458 41.826775 -41.19684 41.826775l0 0c-22.75238 0 -41.19684 -18.726486 -41.19684 -41.826775z" fill-rule="evenodd"/><path stroke="#000000" stroke-width="3.0" stroke-linejoin="round" stroke-linecap="butt" d="m900.90814 83.490814l0 0c0 -23.100288 18.444458 -41.82677 41.19684 -41.82677l0 0c10.926086 0 21.404663 4.4067345 29.130554 12.250778c7.725952 7.84404 12.066284 18.482845 12.066284 29.575993l0 0c0 23.100288 -18.444458 41.826775 -41.19684 41.826775l0 0c-22.75238 0 -41.19684 -18.726486 -41.19684 -41.826775z" fill-rule="evenodd"/></g></svg>